<svg width="54" height="54" viewBox="0 0 54 54" fill="none" xmlns="http://www.w3.org/2000/svg">
<rect x="0" y="0" width="54" height="54" rx="12" fill="#4C5474"/>
<!-- <rect x="1.5" y="1.5" width="51" height="51" rx="13.5" stroke="#4C5474" stroke-opacity="0.5" stroke-width="3"/> -->
<path d="M24.3594 24.4205C24.2988 23.8826 24.0488 23.4659 23.6094 23.1705C23.17 22.8712 22.617 22.7216 21.9503 22.7216C21.473 22.7216 21.0601 22.7973 20.7116 22.9489C20.3632 23.0966 20.0923 23.3011 19.8991 23.5625C19.7098 23.8201 19.6151 24.1136 19.6151 24.4432C19.6151 24.7197 19.6795 24.9583 19.8082 25.1591C19.9408 25.3598 20.1132 25.5284 20.3253 25.6648C20.5412 25.7973 20.7723 25.9091 21.0185 26C21.2647 26.0871 21.5014 26.1591 21.7287 26.2159L22.8651 26.5114C23.2363 26.6023 23.617 26.7254 24.0071 26.8807C24.3973 27.036 24.759 27.2405 25.0923 27.4943C25.4257 27.7481 25.6946 28.0625 25.8991 28.4375C26.1075 28.8125 26.2116 29.2614 26.2116 29.7841C26.2116 30.4432 26.0412 31.0284 25.7003 31.5398C25.3632 32.0511 24.8726 32.4545 24.2287 32.75C23.5885 33.0455 22.8139 33.1932 21.9048 33.1932C21.0336 33.1932 20.2798 33.0549 19.6435 32.7784C19.0071 32.5019 18.509 32.1098 18.1491 31.6023C17.7893 31.0909 17.5904 30.4848 17.5526 29.7841H19.3139C19.348 30.2045 19.4844 30.5549 19.723 30.8352C19.9654 31.1117 20.2741 31.3182 20.6491 31.4545C21.0279 31.5871 21.4427 31.6534 21.8935 31.6534C22.3897 31.6534 22.831 31.5758 23.2173 31.4205C23.6075 31.2614 23.9143 31.0417 24.1378 30.7614C24.3613 30.4773 24.473 30.1458 24.473 29.767C24.473 29.4223 24.3745 29.1402 24.1776 28.9205C23.9844 28.7008 23.7211 28.5189 23.3878 28.375C23.0582 28.2311 22.6851 28.1042 22.2685 27.9943L20.8935 27.6193C19.9616 27.3655 19.223 26.9924 18.6776 26.5C18.1359 26.0076 17.8651 25.3561 17.8651 24.5455C17.8651 23.875 18.0469 23.2898 18.4105 22.7898C18.7741 22.2898 19.2666 21.9015 19.8878 21.625C20.509 21.3447 21.2098 21.2045 21.9901 21.2045C22.7779 21.2045 23.473 21.3428 24.0753 21.6193C24.6813 21.8958 25.1586 22.2765 25.5071 22.7614C25.8556 23.2424 26.0374 23.7955 26.0526 24.4205H24.3594ZM28.3097 33V21.3636H32.4574C33.3627 21.3636 34.1127 21.5284 34.7074 21.858C35.3021 22.1875 35.7472 22.6383 36.0426 23.2102C36.3381 23.7784 36.4858 24.4186 36.4858 25.1307C36.4858 25.8466 36.3362 26.4905 36.0369 27.0625C35.7415 27.6307 35.2945 28.0814 34.696 28.4148C34.1013 28.7443 33.3532 28.9091 32.4517 28.9091H29.5994V27.4205H32.2926C32.8646 27.4205 33.3286 27.322 33.6847 27.125C34.0407 26.9242 34.3021 26.6515 34.4688 26.3068C34.6354 25.9621 34.7188 25.5701 34.7188 25.1307C34.7188 24.6913 34.6354 24.3011 34.4688 23.9602C34.3021 23.6193 34.0388 23.3523 33.679 23.1591C33.3229 22.9659 32.8532 22.8693 32.2699 22.8693H30.0653V33H28.3097Z" fill="white"/>
</svg>
