<svg width="46" height="64" viewBox="0 0 46 64" fill="none" xmlns="http://www.w3.org/2000/svg">
<rect x="31.091" y="64" width="16.6364" height="7.63636" transform="rotate(-180 31.091 64)" fill="black"/>
<rect x="29.4547" y="25.9091" width="13.0909" height="2.72727" transform="rotate(-180 29.4547 25.9091)" fill="black"/>
<rect x="30.0001" y="23.1818" width="14.1818" height="5.72727" transform="rotate(-180 30.0001 23.1818)" fill="black"/>
<rect x="30.0001" y="7.63623" width="14.1818" height="1.63636" transform="rotate(-180 30.0001 7.63623)" fill="black"/>
<path fill-rule="evenodd" clip-rule="evenodd" d="M22.9811 8.81143e-05C20.5874 0.0112873 18.499 1.0875 18.087 1.78065C16.9199 0.851613 16.0164 0.348387 15.6776 0.348387C15.3388 0.348387 14.9999 0.580645 14.9999 0.812903V5.10968C15.0376 5.39355 15.2936 5.96903 16.0164 6H22.9811H23.0188H29.9835C30.7063 5.96903 30.9623 5.39355 30.9999 5.10968V0.812903C30.9999 0.580645 30.6611 0.348387 30.3223 0.348387C29.9835 0.348387 29.0799 0.851613 27.9129 1.78065C27.5009 1.0875 25.4125 0.0112873 23.0188 8.81143e-05V0C23.0125 0 23.0062 7.35227e-06 22.9999 2.20308e-05C22.9937 7.34612e-06 22.9874 0 22.9811 0V8.81143e-05Z" fill="black"/>
<rect x="30.0001" y="16.3636" width="14.1818" height="7.63636" transform="rotate(-180 30.0001 16.3636)" fill="black"/>
<rect x="29.4547" y="8.72729" width="13.0909" height="1.09091" transform="rotate(-180 29.4547 8.72729)" fill="black"/>
<rect x="29.4547" y="17.4546" width="13.0909" height="1.09091" transform="rotate(-180 29.4547 17.4546)" fill="black"/>
<rect x="33.8183" y="47.7273" width="21.8182" height="21.8182" transform="rotate(-180 33.8183 47.7273)" fill="black"/>
<rect x="17.4545" y="61.8181" width="6" height="3.27273" transform="rotate(-180 17.4545 61.8181)" fill="black"/>
<rect x="14.7272" y="34.0908" width="6" height="6" transform="rotate(-180 14.7272 34.0908)" fill="black"/>
<rect x="2.18182" y="54.1819" width="11.4545" height="4.36364" transform="rotate(-90 2.18182 54.1819)" fill="black"/>
<rect x="0.818176" y="42.7273" width="4.90909" height="7.09091" transform="rotate(-90 0.818176 42.7273)" fill="black"/>
<rect y="39.2726" width="13.3636" height="8.72727" transform="rotate(-90 0 39.2726)" fill="black"/>
<path d="M6.26003 62.3635L11.4545 62.3635L11.4545 55.0495L7.86785 55.0495L7.86785 51.4544L0.818166 51.4544L0.818165 56.909L6.26003 62.3635Z" fill="black"/>
<rect width="6" height="3.27273" transform="matrix(1 8.74228e-08 8.74228e-08 -1 28.3637 61.8181)" fill="black"/>
<rect width="6" height="6" transform="matrix(1 8.74228e-08 8.74228e-08 -1 31.091 34.0908)" fill="black"/>
<rect width="11.4545" height="4.36364" transform="matrix(4.37114e-08 -1 -1 -4.37114e-08 43.6365 54.1819)" fill="black"/>
<rect width="4.90909" height="7.09091" transform="matrix(4.37114e-08 -1 -1 -4.37114e-08 45.0001 42.7273)" fill="black"/>
<rect width="13.3636" height="8.72727" transform="matrix(4.37114e-08 -1 -1 -4.37114e-08 45.8183 39.2726)" fill="black"/>
<path d="M39.5582 62.3635L34.3637 62.3635L34.3637 55.0495L37.9504 55.0495L37.9504 51.4544L45.0001 51.4544L45.0001 56.909L39.5582 62.3635Z" fill="black"/>
</svg>